<svg width="120" height="40" viewBox="0 0 120 40" fill="none" xmlns="http://www.w3.org/2000/svg">
<path d="M119.53 4.12611L116.404 1L108.896 8.50784L101.388 1L98.2618 4.12611L105.77 11.6339L98.2618 19.1224L101.388 22.242L108.896 14.7342L116.404 22.242L119.53 19.1224L112.022 11.6081L119.53 4.12611ZM83.6992 21.7436H88.1197V1.52425H83.6992V21.7436ZM67.3114 1.52425H71.5507V21.7436H67.1301V8.66317L60.1919 16.8635L53.1953 8.66317V21.7436H48.7812V1.52425H53.0141L60.1336 9.64696L67.3114 1.52425Z" fill="white"/>
<path d="M0 16.0908V27.8833C0.0102447 28.7645 0.369708 29.6056 0.999487 30.2221C1.62927 30.8385 2.4779 31.1799 3.35911 31.1712C4.24032 31.1781 5.08826 30.8351 5.71682 30.2175C6.34538 29.5998 6.7032 28.758 6.71175 27.8768V9.85156C6.60108 11.5518 5.84418 13.1454 4.59623 14.3055C3.34828 15.4656 1.70383 16.1043 0 16.0908" fill="#DE1C1C"/>
<path d="M0 1.00064V19.123C1.70383 19.1365 3.34828 18.4978 4.59623 17.3377C5.84418 16.1776 6.60107 14.584 6.71175 12.8837V9.7641C6.71175 9.67996 6.71175 9.59582 6.71175 9.51168C6.80003 8.66377 7.2074 7.88115 7.85128 7.32243C8.49517 6.76372 9.32739 6.47072 10.1793 6.50282C11.0312 6.53492 11.839 6.88972 12.439 7.4953C13.039 8.10089 13.3863 8.91195 13.4106 9.7641V22.6569C13.4485 23.5214 13.8187 24.3379 14.4439 24.9363C15.0691 25.5346 15.9011 25.8686 16.7664 25.8686C17.6318 25.8686 18.4638 25.5346 19.089 24.9363C19.7142 24.3379 20.0843 23.5214 20.1223 22.6569V13.984C20.1384 12.2623 20.4935 10.5606 21.1675 8.9762C21.8414 7.39179 22.821 5.95569 24.0501 4.74997C25.2793 3.54426 26.734 2.59255 28.3311 1.94922C29.9282 1.3059 31.6364 0.983565 33.3581 1.00064H0Z" fill="#FF8226"/>
<path d="M33.3641 1.00058C31.6429 0.984357 29.9354 1.30732 28.3391 1.95103C26.7427 2.59474 25.2888 3.54659 24.0603 4.75222C22.8318 5.95785 21.8529 7.39366 21.1793 8.97765C20.5058 10.5616 20.1508 12.2628 20.1348 13.984V18.0227C20.1348 17.1318 20.4887 16.2774 21.1186 15.6474C21.7486 15.0175 22.603 14.6636 23.4939 14.6636C24.3848 14.6636 25.2392 15.0175 25.8691 15.6474C26.4991 16.2774 26.853 17.1318 26.853 18.0227V19.699C26.891 20.5635 27.2611 21.38 27.8863 21.9784C28.5115 22.5767 29.3435 22.9107 30.2089 22.9107C31.0742 22.9107 31.9062 22.5767 32.5314 21.9784C33.1566 21.38 33.5268 20.5635 33.5647 19.699V1.00058H33.3641Z" fill="#FFD41F"/>
</svg>
